<svg width="24" height="24" viewBox="0 0 24 24" fill="none" xmlns="http://www.w3.org/2000/svg">
<g clip-path="url(#clip0_299_13942)">
<path fill-rule="evenodd" clip-rule="evenodd" d="M23.9335 7.48653C23.9335 7.20066 23.9335 6.91479 23.9322 6.62892C23.9309 6.38825 23.9282 6.14759 23.9215 5.90692C23.9076 5.38238 23.8763 4.85385 23.7833 4.33529C23.6889 3.80875 23.534 3.31878 23.2906 2.84011C23.0513 2.37008 22.7388 1.94061 22.3659 1.56764C21.9929 1.19468 21.5628 0.882216 21.0927 0.642881C20.6147 0.399557 20.1248 0.245318 19.5989 0.150249C19.0803 0.0571745 18.5511 0.025928 18.0266 0.0119668C17.7859 0.00531856 17.5453 0.00265928 17.3046 0.00132964C17.0187 0 16.7328 0 16.447 0H7.48653C7.20066 0 6.91479 0 6.62892 0.00132964C6.38825 0.00265928 6.14759 0.00531856 5.90692 0.0119668C5.38238 0.0265928 4.85318 0.0571745 4.33462 0.150914C3.80809 0.245318 3.31878 0.400221 2.84077 0.643546C2.37075 0.882881 1.94061 1.19535 1.56764 1.56831C1.19468 1.94127 0.882216 2.37075 0.642881 2.84077C0.399557 3.31944 0.244654 3.80942 0.150249 4.33595C0.0571745 4.85451 0.025928 5.38371 0.0119668 5.90759C0.00531856 6.14825 0.00265928 6.38892 0.00132964 6.62958C0 6.91479 0 7.20066 0 7.48653V16.4463C0 16.7322 0 17.0181 0.00132964 17.3039C0.00265928 17.5446 0.00531856 17.7853 0.0119668 18.0259C0.025928 18.5505 0.0571745 19.079 0.150249 19.5976C0.244654 20.1241 0.399557 20.6141 0.642881 21.0927C0.882216 21.5628 1.19468 21.9922 1.56764 22.3652C1.94061 22.7382 2.37075 23.0506 2.84077 23.29C3.31878 23.5333 3.80875 23.6875 4.33462 23.7826C4.85318 23.8757 5.38238 23.9069 5.90692 23.9209C6.14759 23.9275 6.38825 23.9302 6.62892 23.9315C6.91479 23.9335 7.20066 23.9328 7.48653 23.9328H16.4463C16.7322 23.9328 17.0181 23.9328 17.3039 23.9315C17.5446 23.9302 17.7853 23.9275 18.0259 23.9209C18.5505 23.9069 19.0797 23.8757 19.5982 23.7826C20.1248 23.6882 20.6141 23.5333 21.0921 23.29C21.5621 23.0506 21.9922 22.7382 22.3652 22.3652C22.7382 21.9922 23.0506 21.5628 23.29 21.0927C23.5333 20.6141 23.6882 20.1241 23.7826 19.5976C23.8757 19.079 23.9069 18.5498 23.9209 18.0259C23.9275 17.7853 23.9302 17.5446 23.9315 17.3039C23.9335 17.0181 23.9328 16.7322 23.9328 16.4463V7.48653H23.9335Z" fill="url(#paint0_linear_299_13942)"/>
<path fill-rule="evenodd" clip-rule="evenodd" d="M16.9197 3.65625C16.8619 3.66156 16.348 3.75264 16.2861 3.76528L9.17256 5.20062L9.16991 5.20129C8.98442 5.24051 8.83883 5.30633 8.72647 5.40073C8.59085 5.51442 8.51572 5.6753 8.48714 5.86278C8.48115 5.90267 8.47118 5.98378 8.47118 6.10345C8.47118 6.10345 8.47118 13.3713 8.47118 15.0067C8.47118 15.2148 8.45456 15.4169 8.31362 15.5891C8.17268 15.7613 7.99849 15.8131 7.79439 15.8544C7.63949 15.8856 7.48459 15.9169 7.32968 15.9481C6.74198 16.0664 6.35971 16.1469 6.01334 16.2812C5.68226 16.4095 5.43428 16.573 5.23683 16.7805C4.84525 17.1907 4.68636 17.7471 4.74087 18.2683C4.78741 18.7131 4.98752 19.1386 5.33123 19.453C5.56326 19.6658 5.85312 19.8273 6.19484 19.8958C6.54918 19.9669 6.9268 19.9423 7.4786 19.8307C7.77245 19.7715 8.04769 19.6791 8.30963 19.5242C8.56891 19.3713 8.79096 19.1672 8.96448 18.9185C9.13866 18.6692 9.25101 18.392 9.31284 18.0975C9.37667 17.7936 9.39196 17.5191 9.39196 17.2159V9.49403C9.39196 9.08051 9.50896 8.97148 9.8427 8.89037C9.8427 8.89037 15.7556 7.69769 16.0315 7.64384C16.4164 7.57004 16.5979 7.67974 16.5979 8.08328V13.3546C16.5979 13.5634 16.5959 13.7748 16.4537 13.9477C16.3127 14.1198 16.1386 14.1717 15.9345 14.2129C15.7795 14.2442 15.6246 14.2754 15.4697 14.3067C14.882 14.425 14.4998 14.5054 14.1534 14.6397C13.8223 14.768 13.5743 14.9316 13.3769 15.139C12.9853 15.5492 12.8125 16.1057 12.867 16.6269C12.9135 17.0717 13.1276 17.4971 13.4713 17.8116C13.7033 18.0243 13.9932 18.1812 14.3349 18.2504C14.6892 18.3215 15.0669 18.2963 15.6187 18.1852C15.9125 18.1261 16.1877 18.0376 16.4497 17.8827C16.709 17.7298 16.931 17.5257 17.1045 17.2771C17.2787 17.0278 17.3911 16.7505 17.4529 16.456C17.5167 16.1522 17.5194 15.8776 17.5194 15.5745V4.28516C17.5207 3.87564 17.3046 3.623 16.9197 3.65625Z" fill="white"/>
</g>
<defs>
<linearGradient id="paint0_linear_299_13942" x1="11.9668" y1="23.8407" x2="11.9668" y2="0.515806" gradientUnits="userSpaceOnUse">
<stop stop-color="#FA233B"/>
<stop offset="1" stop-color="#FB5C74"/>
</linearGradient>
<clipPath id="clip0_299_13942">
<rect width="24" height="24" fill="white"/>
</clipPath>
</defs>
</svg>
