<svg width="32" height="32" viewBox="0 0 32 32" fill="none" xmlns="http://www.w3.org/2000/svg">
<rect width="32" height="32" rx="16" fill="#EFF2FF"/>
<path d="M16 9C12.1344 9 9 12.1344 9 16C9 19.8656 12.1344 23 16 23C19.8656 23 23 19.8656 23 16C23 12.1344 19.8656 9 16 9ZM16 21.8125C12.7906 21.8125 10.1875 19.2094 10.1875 16C10.1875 12.7906 12.7906 10.1875 16 10.1875C19.2094 10.1875 21.8125 12.7906 21.8125 16C21.8125 19.2094 19.2094 21.8125 16 21.8125Z" fill="#607EFC"/>
<path d="M15.2498 18.75C15.2498 18.9489 15.3288 19.1397 15.4694 19.2803C15.6101 19.421 15.8008 19.5 15.9998 19.5C16.1987 19.5 16.3894 19.421 16.5301 19.2803C16.6707 19.1397 16.7498 18.9489 16.7498 18.75C16.7498 18.5511 16.6707 18.3603 16.5301 18.2197C16.3894 18.079 16.1987 18 15.9998 18C15.8008 18 15.6101 18.079 15.4694 18.2197C15.3288 18.3603 15.2498 18.5511 15.2498 18.75ZM15.6248 17H16.3748C16.4435 17 16.4998 16.9438 16.4998 16.875V12.625C16.4998 12.5563 16.4435 12.5 16.3748 12.5H15.6248C15.556 12.5 15.4998 12.5563 15.4998 12.625V16.875C15.4998 16.9438 15.556 17 15.6248 17Z" fill="#607EFC"/>
</svg>
