<svg width="22" height="22" viewBox="0 0 22 22" fill="none" xmlns="http://www.w3.org/2000/svg">
<path d="M1.375 5.49994C1.375 4.77059 1.66473 4.07112 2.18046 3.55539C2.69618 3.03967 3.39565 2.74994 4.125 2.74994H4.8125V2.08177C4.8125 1.71181 5.09695 1.39427 5.46691 1.3758C5.55987 1.37132 5.65277 1.38576 5.73998 1.41824C5.82719 1.45073 5.9069 1.50058 5.97427 1.56478C6.04165 1.62898 6.09528 1.70619 6.13194 1.79174C6.16859 1.87728 6.18749 1.96937 6.1875 2.06244V2.74994H15.8125V2.08177C15.8125 1.71181 16.097 1.39427 16.4669 1.3758C16.5599 1.37132 16.6528 1.38576 16.74 1.41824C16.8272 1.45073 16.9069 1.50058 16.9743 1.56478C17.0416 1.62898 17.0953 1.70619 17.1319 1.79174C17.1686 1.87728 17.1875 1.96937 17.1875 2.06244V2.74994H17.875C18.6043 2.74994 19.3038 3.03967 19.8195 3.55539C20.3353 4.07112 20.625 4.77059 20.625 5.49994V6.01556C20.625 6.06115 20.6069 6.10486 20.5747 6.1371C20.5424 6.16933 20.4987 6.18744 20.4531 6.18744H1.54688C1.50129 6.18744 1.45757 6.16933 1.42534 6.1371C1.39311 6.10486 1.375 6.06115 1.375 6.01556V5.49994ZM20.625 17.8749C20.625 18.6043 20.3353 19.3038 19.8195 19.8195C19.3038 20.3352 18.6043 20.6249 17.875 20.6249H4.125C3.39565 20.6249 2.69618 20.3352 2.18046 19.8195C1.66473 19.3038 1.375 18.6043 1.375 17.8749V7.69134C1.375 7.65716 1.38858 7.62437 1.41276 7.60019C1.43693 7.57602 1.46972 7.56244 1.50391 7.56244H20.4961C20.5303 7.56244 20.5631 7.57602 20.5872 7.60019C20.6114 7.62437 20.625 7.65716 20.625 7.69134V17.8749ZM5.84375 8.93744C5.63979 8.93744 5.44041 8.99792 5.27082 9.11123C5.10123 9.22455 4.96905 9.38561 4.891 9.57405C4.81295 9.76248 4.79252 9.96983 4.83232 10.1699C4.87211 10.3699 4.97032 10.5537 5.11455 10.6979C5.25877 10.8421 5.44252 10.9403 5.64256 10.9801C5.84261 11.0199 6.04996 10.9995 6.23839 10.9214C6.42683 10.8434 6.58789 10.7112 6.7012 10.5416C6.81452 10.372 6.875 10.1726 6.875 9.96869C6.875 9.69518 6.76635 9.43288 6.57295 9.23948C6.37956 9.04609 6.11725 8.93744 5.84375 8.93744ZM5.84375 12.3749C5.63979 12.3749 5.44041 12.4354 5.27082 12.5487C5.10123 12.6621 4.96905 12.8231 4.891 13.0115C4.81295 13.2 4.79252 13.4073 4.83232 13.6074C4.87211 13.8074 4.97032 13.9912 5.11455 14.1354C5.25877 14.2796 5.44252 14.3778 5.64256 14.4176C5.84261 14.4574 6.04996 14.437 6.23839 14.3589C6.42683 14.2809 6.58789 14.1487 6.7012 13.9791C6.81452 13.8095 6.875 13.6102 6.875 13.4062C6.875 13.1327 6.76635 12.8704 6.57295 12.677C6.37956 12.4836 6.11725 12.3749 5.84375 12.3749ZM9.28125 8.93744C9.07729 8.93744 8.87791 8.99792 8.70832 9.11123C8.53873 9.22455 8.40655 9.38561 8.3285 9.57405C8.25045 9.76248 8.23002 9.96983 8.26982 10.1699C8.30961 10.3699 8.40782 10.5537 8.55205 10.6979C8.69627 10.8421 8.88002 10.9403 9.08006 10.9801C9.28011 11.0199 9.48746 10.9995 9.67589 10.9214C9.86433 10.8434 10.0254 10.7112 10.1387 10.5416C10.252 10.372 10.3125 10.1726 10.3125 9.96869C10.3125 9.69518 10.2038 9.43288 10.0105 9.23948C9.81706 9.04609 9.55475 8.93744 9.28125 8.93744ZM9.28125 12.3749C9.07729 12.3749 8.87791 12.4354 8.70832 12.5487C8.53873 12.6621 8.40655 12.8231 8.3285 13.0115C8.25045 13.2 8.23002 13.4073 8.26982 13.6074C8.30961 13.8074 8.40782 13.9912 8.55205 14.1354C8.69627 14.2796 8.88002 14.3778 9.08006 14.4176C9.28011 14.4574 9.48746 14.437 9.67589 14.3589C9.86433 14.2809 10.0254 14.1487 10.1387 13.9791C10.252 13.8095 10.3125 13.6102 10.3125 13.4062C10.3125 13.1327 10.2038 12.8704 10.0105 12.677C9.81706 12.4836 9.55475 12.3749 9.28125 12.3749ZM9.28125 15.8124C9.07729 15.8124 8.87791 15.8729 8.70832 15.9862C8.53873 16.0996 8.40655 16.2606 8.3285 16.449C8.25045 16.6375 8.23002 16.8448 8.26982 17.0449C8.30961 17.2449 8.40782 17.4287 8.55205 17.5729C8.69627 17.7171 8.88002 17.8153 9.08006 17.8551C9.28011 17.8949 9.48746 17.8745 9.67589 17.7964C9.86433 17.7184 10.0254 17.5862 10.1387 17.4166C10.252 17.247 10.3125 17.0477 10.3125 16.8437C10.3125 16.5702 10.2038 16.3079 10.0105 16.1145C9.81706 15.9211 9.55475 15.8124 9.28125 15.8124ZM12.7188 12.3749C12.5148 12.3749 12.3154 12.4354 12.1458 12.5487C11.9762 12.6621 11.8441 12.8231 11.766 13.0115C11.6879 13.2 11.6675 13.4073 11.7073 13.6074C11.7471 13.8074 11.8453 13.9912 11.9895 14.1354C12.1338 14.2796 12.3175 14.3778 12.5176 14.4176C12.7176 14.4574 12.925 14.437 13.1134 14.3589C13.3018 14.2809 13.4629 14.1487 13.5762 13.9791C13.6895 13.8095 13.75 13.6102 13.75 13.4062C13.75 13.1327 13.6414 12.8704 13.448 12.677C13.2546 12.4836 12.9923 12.3749 12.7188 12.3749ZM12.7188 15.8124C12.5148 15.8124 12.3154 15.8729 12.1458 15.9862C11.9762 16.0996 11.8441 16.2606 11.766 16.449C11.6879 16.6375 11.6675 16.8448 11.7073 17.0449C11.7471 17.2449 11.8453 17.4287 11.9895 17.5729C12.1338 17.7171 12.3175 17.8153 12.5176 17.8551C12.7176 17.8949 12.925 17.8745 13.1134 17.7964C13.3018 17.7184 13.4629 17.5862 13.5762 17.4166C13.6895 17.247 13.75 17.0477 13.75 16.8437C13.75 16.5702 13.6414 16.3079 13.448 16.1145C13.2546 15.9211 12.9923 15.8124 12.7188 15.8124ZM16.1562 12.3749C15.9523 12.3749 15.7529 12.4354 15.5833 12.5487C15.4137 12.6621 15.2816 12.8231 15.2035 13.0115C15.1254 13.2 15.105 13.4073 15.1448 13.6074C15.1846 13.8074 15.2828 13.9912 15.427 14.1354C15.5713 14.2796 15.755 14.3778 15.9551 14.4176C16.1551 14.4574 16.3625 14.437 16.5509 14.3589C16.7393 14.2809 16.9004 14.1487 17.0137 13.9791C17.127 13.8095 17.1875 13.6102 17.1875 13.4062C17.1875 13.1327 17.0789 12.8704 16.8855 12.677C16.6921 12.4836 16.4298 12.3749 16.1562 12.3749ZM16.1562 15.8124C15.9523 15.8124 15.7529 15.8729 15.5833 15.9862C15.4137 16.0996 15.2816 16.2606 15.2035 16.449C15.1254 16.6375 15.105 16.8448 15.1448 17.0449C15.1846 17.2449 15.2828 17.4287 15.427 17.5729C15.5713 17.7171 15.755 17.8153 15.9551 17.8551C16.1551 17.8949 16.3625 17.8745 16.5509 17.7964C16.7393 17.7184 16.9004 17.5862 17.0137 17.4166C17.127 17.247 17.1875 17.0477 17.1875 16.8437C17.1875 16.5702 17.0789 16.3079 16.8855 16.1145C16.6921 15.9211 16.4298 15.8124 16.1562 15.8124Z" fill="#555555"/>
</svg>
