<svg width="108" height="108" viewBox="0 0 108 108" fill="none" xmlns="http://www.w3.org/2000/svg">
<path d="M56.5973 35.6942H44.9449C42.3638 35.6942 40.0886 34.3843 38.7479 32.3931L31.6645 32.3936C30.4028 32.3936 29.3601 33.3312 29.1951 34.5476L29.1723 34.8858V79.76C29.1723 81.0217 30.1099 82.0644 31.3263 82.2294L32.0027 82.2749C33.2191 82.4399 34.1567 83.4826 34.1567 84.7443C34.1567 86.1207 33.0409 87.2365 31.6645 87.2365C27.7074 87.2365 24.4683 84.1623 24.2052 80.2719L24.188 79.76V34.8858C24.188 30.9287 27.2622 27.6896 31.1526 27.4265L31.6645 27.4093L37.5242 27.4075C37.9332 23.6709 41.0995 20.7635 44.9449 20.7635H56.5973C60.4427 20.7635 63.609 23.6709 64.018 27.4075L69.8777 27.4093C73.8348 27.4093 77.0739 30.4835 77.3369 34.3739L77.3542 34.8858V53.1758C77.3542 54.5522 76.2384 55.6679 74.862 55.6679C73.6003 55.6679 72.5576 54.7304 72.3926 53.5139L72.3699 53.1758V34.8858C72.3699 33.6241 71.4323 32.5814 70.2159 32.4163L69.8777 32.3936L62.7943 32.3931C61.4535 34.3843 59.1784 35.6942 56.5973 35.6942ZM56.5973 25.7478H44.9449C43.5747 25.7478 42.4639 26.8586 42.4639 28.2289C42.4639 29.5991 43.5747 30.7099 44.9449 30.7099H56.5973C57.9675 30.7099 59.0783 29.5991 59.0783 28.2289C59.0783 26.8586 57.9675 25.7478 56.5973 25.7478Z" fill="#444343"/>
<path d="M70.037 67H67.2963L66.9767 67.0185C65.6136 67.1773 64.5555 68.3389 64.5555 69.7484C64.5555 71.2663 65.7826 72.4968 67.2963 72.4968H70.037L70.4461 72.5119C73.2824 72.7217 75.5185 75.0958 75.5185 77.9937C75.5185 81.0295 73.0644 83.4905 70.037 83.4905L67.2837 83.5031L66.9642 83.5231C65.6018 83.6881 64.5491 84.8547 64.5555 86.2642C64.5625 87.782 65.7952 89.0069 67.3089 89L70.0496 88.9873L70.5957 88.9738C76.3847 88.688 81 83.8813 81 77.9937C81 71.922 76.0917 67 70.037 67Z" fill="#444343"/>
<path d="M57.7037 67.0126H54.963L54.4158 67.0261C48.6153 67.312 44 72.1186 44 78.0063C44 84.0779 48.9083 89 54.963 89H57.7037L58.0233 88.9815C59.3864 88.8227 60.4444 87.661 60.4444 86.2515C60.4444 84.7336 59.2174 83.5031 57.7037 83.5031H54.963L54.5539 83.488C51.7176 83.2782 49.4815 80.9041 49.4815 78.0063C49.4815 74.9705 51.9356 72.5094 54.963 72.5094H57.7037L58.0233 72.491C59.3864 72.3322 60.4444 71.1705 60.4444 69.761C60.4444 68.2431 59.2174 67.0126 57.7037 67.0126Z" fill="#444343"/>
<path d="M70.037 75.2516H54.959L54.6394 75.27C53.2763 75.4288 52.2183 76.5905 52.2183 78C52.2183 79.5179 53.4454 80.7484 54.959 80.7484H70.037L70.3567 80.7299C71.7197 80.5711 72.7778 79.4095 72.7778 78C72.7778 76.4821 71.5507 75.2516 70.037 75.2516Z" fill="#444343"/>
</svg>
