<svg width="16" height="16" viewBox="0 0 16 16" fill="none" xmlns="http://www.w3.org/2000/svg">
<path d="M14.134 1.3335H1.86732C1.57232 1.3335 1.33398 1.57183 1.33398 1.86683V14.1335C1.33398 14.4285 1.57232 14.6668 1.86732 14.6668H14.134C14.429 14.6668 14.6673 14.4285 14.6673 14.1335V1.86683C14.6673 1.57183 14.429 1.3335 14.134 1.3335ZM13.4673 13.4668H2.53398V2.5335H13.4673V13.4668ZM5.13398 10.8502V12.1335C5.13398 12.2068 5.19398 12.2668 5.26732 12.2668H6.06732C6.14065 12.2668 6.20065 12.2068 6.20065 12.1335V10.8502C6.03232 10.9052 5.85398 10.9335 5.66732 10.9335C5.48065 10.9335 5.30232 10.9035 5.13398 10.8502ZM6.20065 7.55016V3.86683C6.20065 3.7935 6.14065 3.7335 6.06732 3.7335H5.26732C5.19398 3.7335 5.13398 3.7935 5.13398 3.86683V7.55016C5.30232 7.49516 5.48065 7.46683 5.66732 7.46683C5.85398 7.46683 6.03232 7.49683 6.20065 7.55016ZM5.13398 10.8502C5.30232 10.9052 5.48065 10.9335 5.66732 10.9335C5.85398 10.9335 6.03232 10.9035 6.20065 10.8502C6.89732 10.6252 7.40065 9.97183 7.40065 9.20016C7.40065 8.4285 6.89732 7.77516 6.20065 7.55016C6.03232 7.49516 5.85398 7.46683 5.66732 7.46683C5.48065 7.46683 5.30232 7.49683 5.13398 7.55016C4.43732 7.77516 3.93398 8.4285 3.93398 9.20016C3.93398 9.97183 4.43732 10.6252 5.13398 10.8502ZM5.13565 8.92183C5.14065 8.91183 5.14732 8.90183 5.15232 8.89183V8.89016L5.17232 8.86016C5.17398 8.85683 5.17565 8.85516 5.17732 8.85183C5.18232 8.8435 5.18898 8.83683 5.19398 8.8285C5.19565 8.82683 5.19732 8.8235 5.19898 8.82183C5.20732 8.81183 5.21398 8.8035 5.22232 8.79516L5.22732 8.79016L5.24732 8.77016L5.25398 8.7635C5.26232 8.75516 5.27065 8.7485 5.28065 8.74016C5.29065 8.73183 5.29898 8.72516 5.30898 8.7185C5.31232 8.71683 5.31398 8.71516 5.31732 8.7135C5.32565 8.7085 5.33232 8.70183 5.34065 8.69683C5.34232 8.69516 5.34565 8.6935 5.34732 8.69183C5.35732 8.68516 5.36732 8.68016 5.37898 8.6735C5.38065 8.67183 5.38398 8.67183 5.38565 8.67016C5.39398 8.66516 5.40232 8.66183 5.41232 8.65683L5.42232 8.65183C5.43398 8.64683 5.44398 8.64183 5.45565 8.6385C5.46732 8.6335 5.47898 8.63016 5.49065 8.62683C5.49398 8.62516 5.49732 8.62516 5.50065 8.6235C5.51065 8.62016 5.51898 8.6185 5.52899 8.61683C5.53232 8.61683 5.53398 8.61516 5.53732 8.61516C5.54899 8.61183 5.56232 8.61016 5.57398 8.6085C5.57732 8.6085 5.57898 8.6085 5.58232 8.60683C5.59232 8.60516 5.60232 8.60516 5.61232 8.6035H5.62232C5.63565 8.6035 5.64732 8.60183 5.66065 8.60183C5.67398 8.60183 5.68565 8.60183 5.69898 8.6035H5.70898C5.71898 8.6035 5.72898 8.60516 5.73898 8.60683C5.74232 8.60683 5.74398 8.60683 5.74732 8.6085C5.75898 8.61016 5.77232 8.61183 5.78398 8.61516C5.78732 8.61516 5.78898 8.61683 5.79232 8.61683C5.80232 8.6185 5.81232 8.62183 5.82065 8.6235C5.82398 8.62516 5.82732 8.62516 5.83065 8.62683C5.84232 8.63016 5.85398 8.6335 5.86565 8.6385C5.87732 8.64183 5.88732 8.64683 5.89898 8.65183L5.90898 8.65683C5.91732 8.66016 5.92732 8.66516 5.93565 8.67016C5.93732 8.67183 5.94065 8.67183 5.94232 8.6735C5.95232 8.6785 5.96398 8.68516 5.97398 8.69183C5.97565 8.6935 5.97898 8.69516 5.98065 8.69683C5.98898 8.70183 5.99732 8.70683 6.00398 8.7135C6.00732 8.71516 6.00899 8.71683 6.01232 8.7185C6.02232 8.72516 6.03232 8.7335 6.04065 8.74016C6.04898 8.74683 6.05898 8.75516 6.06732 8.7635L6.07398 8.77016L6.09398 8.79016L6.09898 8.79516C6.10732 8.8035 6.11565 8.8135 6.12232 8.82183C6.12398 8.8235 6.12565 8.82683 6.12732 8.8285C6.13398 8.83516 6.13898 8.8435 6.14398 8.85183C6.14565 8.85516 6.14732 8.85683 6.14898 8.86016L6.16898 8.89016C6.16898 8.89016 6.16898 8.89183 6.17065 8.89183C6.22622 8.98508 6.25559 9.09161 6.25565 9.20016C6.25565 9.30016 6.23065 9.39516 6.18732 9.4785C6.18232 9.4885 6.17565 9.4985 6.17065 9.5085C6.17065 9.5085 6.17065 9.51016 6.16898 9.51016L6.14898 9.54016C6.14732 9.5435 6.14565 9.54516 6.14398 9.5485C6.13898 9.55683 6.13232 9.5635 6.12732 9.57183C6.12565 9.5735 6.12398 9.57683 6.12232 9.5785C6.11398 9.5885 6.10732 9.59683 6.09898 9.60516L6.09398 9.61016L6.07398 9.63016L6.06732 9.63683C6.05898 9.64516 6.05065 9.65183 6.04065 9.66016C6.03065 9.6685 6.02232 9.67516 6.01232 9.68183C6.00899 9.6835 6.00732 9.68516 6.00398 9.68683C5.99565 9.69183 5.98898 9.6985 5.98065 9.7035C5.97898 9.70516 5.97565 9.70683 5.97398 9.7085C5.96398 9.71516 5.95398 9.72016 5.94232 9.72683C5.94065 9.7285 5.93732 9.7285 5.93565 9.73016C5.92732 9.73516 5.91898 9.73849 5.90898 9.74349L5.89898 9.7485C5.88732 9.7535 5.87732 9.7585 5.86565 9.76183C5.85398 9.76683 5.84232 9.77016 5.83065 9.7735C5.82732 9.77516 5.82398 9.77516 5.82065 9.77683C5.81065 9.78016 5.80232 9.78183 5.79232 9.7835C5.78898 9.7835 5.78732 9.78516 5.78398 9.78516C5.77232 9.7885 5.75898 9.79016 5.74732 9.79183C5.74398 9.79183 5.74232 9.79183 5.73898 9.7935C5.72898 9.79516 5.71898 9.79516 5.70898 9.79683H5.69898C5.68565 9.79683 5.67398 9.7985 5.66065 9.7985C5.64732 9.7985 5.63565 9.7985 5.62232 9.79683H5.61232C5.60232 9.79683 5.59232 9.79516 5.58232 9.7935C5.57898 9.7935 5.57732 9.7935 5.57398 9.79183C5.56232 9.79016 5.54899 9.7885 5.53732 9.78516C5.53398 9.78516 5.53232 9.7835 5.52899 9.7835C5.51898 9.78183 5.50898 9.77849 5.50065 9.77683C5.49732 9.77516 5.49398 9.77516 5.49065 9.7735C5.47898 9.77016 5.46732 9.76683 5.45565 9.76183C5.44398 9.7585 5.43398 9.7535 5.42232 9.7485L5.41232 9.74349C5.40399 9.74016 5.39398 9.73516 5.38565 9.73016C5.38398 9.7285 5.38065 9.7285 5.37898 9.72683C5.36898 9.72183 5.35732 9.71516 5.34732 9.7085C5.34565 9.70683 5.34232 9.70516 5.34065 9.7035C5.33232 9.6985 5.32398 9.6935 5.31732 9.68683C5.31398 9.68516 5.31232 9.6835 5.30898 9.68183C5.29898 9.67516 5.28898 9.66683 5.28065 9.66016C5.27232 9.65349 5.26232 9.64516 5.25398 9.63683L5.24732 9.63016L5.22732 9.61016L5.22232 9.60516C5.21398 9.59683 5.20565 9.58683 5.19898 9.5785C5.19732 9.57683 5.19565 9.5735 5.19398 9.57183C5.18732 9.56516 5.18232 9.55683 5.17732 9.5485C5.17565 9.54516 5.17398 9.5435 5.17232 9.54016L5.15232 9.51016V9.5085C5.14565 9.4985 5.14065 9.4885 5.13565 9.4785C5.09232 9.39516 5.06732 9.30016 5.06732 9.20016C5.06732 9.10016 5.09232 9.00516 5.13565 8.92183ZM9.80065 8.45016V12.1335C9.80065 12.2068 9.86065 12.2668 9.93398 12.2668H10.734C10.8073 12.2668 10.8673 12.2068 10.8673 12.1335V8.45016C10.699 8.50516 10.5207 8.5335 10.334 8.5335C10.1473 8.5335 9.96898 8.5035 9.80065 8.45016ZM10.8673 5.15016V3.86683C10.8673 3.7935 10.8073 3.7335 10.734 3.7335H9.93398C9.86065 3.7335 9.80065 3.7935 9.80065 3.86683V5.15016C9.96898 5.09516 10.1473 5.06683 10.334 5.06683C10.5207 5.06683 10.699 5.09683 10.8673 5.15016ZM9.80065 8.45016C9.96898 8.50516 10.1473 8.5335 10.334 8.5335C10.5207 8.5335 10.699 8.5035 10.8673 8.45016C11.564 8.22516 12.0673 7.57183 12.0673 6.80016C12.0673 6.0285 11.564 5.37516 10.8673 5.15016C10.699 5.09516 10.5207 5.06683 10.334 5.06683C10.1473 5.06683 9.96898 5.09683 9.80065 5.15016C9.10398 5.37516 8.60065 6.0285 8.60065 6.80016C8.60065 7.57183 9.10398 8.22516 9.80065 8.45016ZM9.80232 6.52183C9.80732 6.51183 9.81398 6.50183 9.81898 6.49183V6.49016L9.83898 6.46016C9.84065 6.45683 9.84232 6.45516 9.84398 6.45183C9.84898 6.4435 9.85565 6.43683 9.86065 6.4285C9.86232 6.42683 9.86399 6.4235 9.86565 6.42183C9.87399 6.41183 9.88065 6.4035 9.88898 6.39516L9.89398 6.39016L9.91398 6.37016L9.92065 6.3635C9.92898 6.35516 9.93732 6.3485 9.94732 6.34016C9.95732 6.33183 9.96565 6.32516 9.97565 6.3185C9.97898 6.31683 9.98065 6.31516 9.98398 6.3135C9.99232 6.3085 9.99899 6.30183 10.0073 6.29683C10.009 6.29516 10.0123 6.2935 10.014 6.29183C10.024 6.28516 10.034 6.28016 10.0457 6.2735C10.0473 6.27183 10.0507 6.27183 10.0523 6.27016C10.0607 6.26516 10.069 6.26183 10.079 6.25683L10.089 6.25183C10.1007 6.24683 10.1107 6.24183 10.1223 6.2385C10.134 6.2335 10.1457 6.23016 10.1573 6.22683C10.1607 6.22516 10.164 6.22516 10.1673 6.2235C10.1773 6.22016 10.1857 6.2185 10.1957 6.21683C10.199 6.21683 10.2007 6.21516 10.204 6.21516C10.2157 6.21183 10.229 6.21016 10.2407 6.2085C10.244 6.2085 10.2457 6.2085 10.249 6.20683C10.259 6.20516 10.269 6.20516 10.279 6.2035H10.289C10.3023 6.2035 10.314 6.20183 10.3273 6.20183C10.3407 6.20183 10.3523 6.20183 10.3657 6.2035H10.3757C10.3857 6.2035 10.3957 6.20516 10.4057 6.20683C10.409 6.20683 10.4107 6.20683 10.414 6.2085C10.4257 6.21016 10.439 6.21183 10.4507 6.21516C10.454 6.21516 10.4557 6.21683 10.459 6.21683C10.469 6.2185 10.479 6.22183 10.4873 6.2235C10.4907 6.22516 10.494 6.22516 10.4973 6.22683C10.509 6.23016 10.5207 6.2335 10.5323 6.2385C10.544 6.24183 10.554 6.24683 10.5657 6.25183L10.5757 6.25683C10.584 6.26016 10.594 6.26516 10.6023 6.27016C10.604 6.27183 10.6073 6.27183 10.609 6.2735C10.619 6.2785 10.6307 6.28516 10.6407 6.29183C10.6423 6.2935 10.6457 6.29516 10.6473 6.29683C10.6557 6.30183 10.664 6.30683 10.6707 6.3135C10.674 6.31516 10.6757 6.31683 10.679 6.3185C10.689 6.32516 10.699 6.3335 10.7073 6.34016C10.7157 6.34683 10.7257 6.35516 10.734 6.3635L10.7407 6.37016L10.7607 6.39016L10.7657 6.39516C10.774 6.4035 10.7823 6.4135 10.789 6.42183C10.7907 6.4235 10.7923 6.42683 10.794 6.4285C10.8007 6.43516 10.8057 6.4435 10.8107 6.45183C10.8123 6.45516 10.814 6.45683 10.8157 6.46016L10.8357 6.49016V6.49183C10.8912 6.58508 10.9206 6.69161 10.9207 6.80016C10.9207 6.90016 10.8957 6.99516 10.8523 7.0785C10.8473 7.0885 10.8407 7.0985 10.8357 7.1085V7.11016L10.8157 7.14016C10.814 7.1435 10.8123 7.14516 10.8107 7.1485C10.8057 7.15683 10.799 7.1635 10.794 7.17183C10.7923 7.1735 10.7907 7.17683 10.789 7.1785C10.7807 7.1885 10.774 7.19683 10.7657 7.20516L10.7607 7.21016L10.7407 7.23016L10.734 7.23683C10.7257 7.24516 10.7173 7.25183 10.7073 7.26016C10.6973 7.2685 10.689 7.27516 10.679 7.28183C10.6757 7.2835 10.674 7.28516 10.6707 7.28683C10.6623 7.29183 10.6557 7.2985 10.6473 7.3035C10.6457 7.30516 10.6423 7.30683 10.6407 7.3085C10.6307 7.31516 10.6207 7.32016 10.609 7.32683C10.6073 7.3285 10.604 7.3285 10.6023 7.33016C10.594 7.33516 10.5857 7.3385 10.5757 7.3435L10.5657 7.3485C10.554 7.3535 10.544 7.3585 10.5323 7.36183C10.5207 7.36683 10.509 7.37016 10.4973 7.3735C10.494 7.37516 10.4907 7.37516 10.4873 7.37683C10.4773 7.38016 10.469 7.38183 10.459 7.3835C10.4557 7.3835 10.454 7.38516 10.4507 7.38516C10.439 7.3885 10.4257 7.39016 10.414 7.39183C10.4107 7.39183 10.409 7.39183 10.4057 7.3935C10.3957 7.39516 10.3857 7.39516 10.3757 7.39683H10.3657C10.3523 7.39683 10.3407 7.3985 10.3273 7.3985C10.314 7.3985 10.3023 7.3985 10.289 7.39683H10.279C10.269 7.39683 10.259 7.39516 10.249 7.3935C10.2457 7.3935 10.244 7.3935 10.2407 7.39183C10.229 7.39016 10.2157 7.3885 10.204 7.38516C10.2007 7.38516 10.199 7.3835 10.1957 7.3835C10.1857 7.38183 10.1757 7.3785 10.1673 7.37683C10.164 7.37516 10.1607 7.37516 10.1573 7.3735C10.1457 7.37016 10.134 7.36683 10.1223 7.36183C10.1107 7.3585 10.1007 7.3535 10.089 7.3485L10.079 7.3435C10.0707 7.34016 10.0607 7.33516 10.0523 7.33016C10.0507 7.3285 10.0473 7.3285 10.0457 7.32683C10.0357 7.32183 10.024 7.31516 10.014 7.3085C10.0123 7.30683 10.009 7.30516 10.0073 7.3035C9.99899 7.2985 9.99065 7.2935 9.98398 7.28683C9.98065 7.28516 9.97898 7.2835 9.97565 7.28183C9.96565 7.27516 9.95565 7.26683 9.94732 7.26016C9.93898 7.2535 9.92898 7.24516 9.92065 7.23683L9.91398 7.23016L9.89398 7.21016L9.88898 7.20516C9.88065 7.19683 9.87232 7.18683 9.86565 7.1785C9.86399 7.17683 9.86232 7.1735 9.86065 7.17183C9.85398 7.16516 9.84898 7.15683 9.84398 7.1485C9.84232 7.14516 9.84065 7.1435 9.83898 7.14016L9.81898 7.11016V7.1085C9.81232 7.0985 9.80732 7.0885 9.80232 7.0785C9.75898 6.99516 9.73398 6.90016 9.73398 6.80016C9.73398 6.70016 9.75898 6.60516 9.80232 6.52183Z" fill="#1B3DE6"/>
</svg>
