<svg width="324" height="324" viewBox="0 0 324 324" fill="none" xmlns="http://www.w3.org/2000/svg">
<path d="M152.604 312.498C236.08 312.498 303.75 244.828 303.75 161.352C303.75 77.8764 236.08 10.2061 152.604 10.2061C69.1284 10.2061 1.45801 77.8764 1.45801 161.352C1.45801 244.828 69.1284 312.498 152.604 312.498Z" fill="#EFF2FF"/>
<path d="M185.814 249.642C172.044 219.186 164.916 185.976 164.754 152.442C164.754 151.632 164.43 151.146 164.106 150.66C164.106 150.498 164.106 150.498 164.106 150.336C163.62 148.554 163.134 146.934 162.648 145.152C162.486 144.504 162 144.018 161.514 143.694H161.352C161.352 143.532 161.514 143.37 161.514 143.208C161.514 142.074 160.38 140.616 159.084 140.778C150.984 141.75 143.046 142.722 134.946 143.694C133.974 142.074 132.678 140.616 130.734 140.13C129.276 139.806 127.818 140.13 126.36 140.778C125.226 141.264 123.768 142.074 122.472 142.236C121.176 142.398 120.042 143.208 120.042 144.666C120.042 144.828 120.042 144.99 120.204 145.152C113.886 145.8 107.73 146.448 101.412 146.934C100.44 144.18 98.9817 141.102 95.7417 141.264C94.1217 141.264 92.5017 142.236 91.0437 143.046C89.5857 143.856 88.2897 144.828 86.9937 145.8C86.1837 146.448 86.1837 147.42 86.5077 148.23C80.9997 148.716 75.6537 149.04 70.1457 149.526C69.0117 147.096 67.2297 144.828 64.3137 144.018C60.2637 143.046 57.0237 145.8 54.4317 148.554C53.7837 149.202 53.6217 149.85 53.7837 150.498C46.0077 150.984 38.0697 151.47 30.2937 151.794C28.8357 151.794 28.0257 153.09 27.8637 154.224C27.5397 154.548 27.3777 155.034 27.3777 155.682C27.8637 181.764 30.1317 207.522 33.6957 233.28C33.5337 233.604 33.3717 233.928 33.3717 234.252C32.3997 243.972 28.1877 253.368 21.7077 260.658C20.7357 261.792 20.7357 263.736 22.1937 264.546C27.8637 267.3 33.6957 269.892 39.6897 272.322C40.0137 272.484 40.1757 272.484 40.4997 272.484C40.8237 274.104 40.9857 275.724 41.3097 277.344C41.6337 279.126 43.0917 279.45 44.3877 278.802C44.5497 279.774 45.3597 280.746 46.6557 280.746C71.2797 280.584 95.9037 278.964 120.366 275.562C132.516 273.942 144.504 271.998 156.492 269.568C162.486 268.434 168.48 267.138 174.474 265.68C178.848 264.546 183.06 262.764 185.814 259.038C187.758 256.608 184.194 253.044 182.25 255.474C179.01 259.686 173.988 260.658 169.128 261.792C163.458 263.088 157.788 264.222 151.956 265.356C140.13 267.624 128.304 269.568 116.478 271.188C93.3117 274.104 69.9837 275.724 46.6557 275.724C46.3317 275.724 46.1697 275.724 46.0077 275.886C40.0137 239.922 36.6117 203.634 35.8017 167.346C35.8017 165.564 34.1817 164.754 32.8857 165.078C32.7237 162.162 32.5617 159.408 32.5617 156.492C41.7957 156.006 50.8677 155.52 60.1017 155.034C60.2637 155.196 60.4257 155.52 60.5877 155.682V155.844C60.4257 155.844 60.4257 155.844 60.2637 155.844C52.0017 156.816 43.7397 157.95 35.4777 159.084C34.1817 159.246 33.3717 161.028 33.6957 162.162C34.0197 163.62 35.4777 164.106 36.7737 163.944C44.5497 162.81 52.3257 161.838 60.2637 160.866C60.7497 160.866 61.2357 160.704 61.7217 160.704C61.8837 160.704 61.8837 160.704 61.8837 160.704C62.8557 164.592 63.6657 168.318 63.5037 172.368C63.5037 173.664 64.6377 174.798 65.9337 174.798C66.9057 174.798 67.7157 174.15 68.2017 173.34C69.0117 173.502 69.9837 173.178 70.6317 172.206C72.5757 168.966 73.2237 165.24 73.0617 161.514C73.0617 160.866 72.8997 160.218 72.8997 159.408C79.0557 158.76 85.0497 158.112 91.2057 157.464C93.3117 161.028 94.6077 165.078 94.9317 169.128C95.0937 170.424 96.0657 171.558 97.3617 171.558C98.6577 171.558 99.9537 170.424 99.7917 169.128C99.7917 168.804 99.7917 168.642 99.6297 168.318C100.926 168.966 102.546 168.642 103.032 166.86C103.842 163.296 104.004 159.732 103.68 156.006C103.842 156.006 104.004 156.168 104.328 156.168C111.618 155.52 118.908 154.872 126.198 154.224C128.628 158.274 130.248 162.972 130.41 167.832C130.41 168.804 130.896 169.452 131.706 169.938C102.222 173.016 72.8997 175.932 43.4157 179.01C41.6337 179.172 40.8237 180.954 41.1477 182.25C40.8237 182.25 40.4997 182.25 40.3377 182.25C39.6897 182.412 39.2037 182.736 38.8797 183.384C38.5557 184.032 38.3937 184.68 38.5557 185.328C39.0417 186.948 39.5277 188.406 39.8517 190.026C40.0137 190.674 40.4997 191.16 40.9857 191.484C41.4717 191.808 42.2817 191.97 42.9297 191.808C43.4157 191.646 44.0637 191.322 44.3877 190.836C44.7117 191.16 45.3597 191.484 46.0077 191.322C57.6717 190.35 69.1737 189.054 80.8377 187.92C81.3237 188.082 81.9717 188.244 82.6197 188.082C82.9437 187.92 83.2677 187.758 83.4297 187.596C108.216 185.004 132.84 182.088 157.464 178.848C159.732 178.524 160.38 175.608 159.246 174.474C159.246 174.312 159.246 173.988 159.084 173.826C158.922 173.016 158.598 172.206 158.274 171.396C158.112 171.072 157.95 170.91 157.626 170.748C158.112 169.29 157.464 167.346 155.52 167.508C148.554 168.156 141.588 168.966 134.784 169.614C135.108 169.452 135.27 169.128 135.432 168.804C136.566 169.128 138.024 168.804 138.51 167.184C139.644 162.648 139.806 157.95 138.996 153.252C145.962 152.766 152.928 152.28 160.056 151.794C160.218 152.118 160.218 152.28 160.542 152.442C160.704 186.786 168.156 220.482 182.25 251.748C182.898 254.988 187.11 252.396 185.814 249.642ZM153.576 173.988C153.414 173.826 153.576 173.826 153.576 173.988C153.576 173.988 153.576 174.312 153.738 174.474C150.822 174.798 147.906 175.284 144.99 175.608C144.828 174.96 144.666 174.312 144.504 173.664C147.42 173.34 150.336 173.016 153.414 172.692C153.252 173.178 153.414 173.502 153.576 173.988ZM139.644 174.798C139.806 175.284 139.968 175.608 139.968 176.094C134.946 176.742 129.762 177.39 124.74 178.038C124.416 177.228 124.254 176.418 123.93 175.608C129.114 175.122 134.298 174.474 139.482 173.988C139.482 174.312 139.482 174.636 139.644 174.798ZM63.5037 184.68C63.3417 184.194 63.1797 183.708 63.1797 183.222C63.1797 182.898 63.0177 182.574 62.6937 182.412C62.5317 182.25 62.3697 182.088 62.2077 182.088C67.5537 181.602 72.8997 180.954 78.2457 180.468C78.0837 180.954 78.0837 181.278 78.2457 181.764C78.4077 182.25 78.4077 182.736 78.5697 183.384C73.5477 183.708 68.5257 184.194 63.5037 184.68ZM82.9437 180.306C82.9437 180.144 82.7817 179.982 82.7817 179.82C87.9657 179.334 93.1497 178.686 98.4957 178.2V178.362C98.4957 178.524 98.4957 178.848 98.3337 179.01C98.3337 179.496 98.4957 179.82 98.6577 180.306C98.8197 180.468 98.8197 180.792 98.9817 180.954C93.7977 181.602 88.6137 182.088 83.4297 182.574C83.2677 181.926 83.1057 181.116 82.9437 180.306ZM104.166 180.468C103.68 179.658 103.356 178.686 102.87 177.876C108.216 177.39 113.562 176.742 118.908 176.256C119.232 177.066 119.394 177.876 119.718 178.686C114.534 179.334 109.35 179.982 104.166 180.468ZM43.9017 187.272C43.5777 186.138 43.2537 185.166 42.9297 184.032C42.9297 184.032 42.9297 184.032 42.9297 183.87C42.9297 183.87 42.9297 183.87 43.0917 183.87C48.4377 183.384 53.6217 182.736 58.9677 182.25C58.8057 182.412 58.8057 182.412 58.6437 182.574C58.3197 183.222 58.1577 183.87 58.3197 184.518C58.3197 184.68 58.4817 184.842 58.4817 185.166C54.1077 185.652 49.8957 185.976 45.5217 186.462C44.8737 186.462 44.2257 186.786 43.9017 187.272ZM27.0537 261.792C31.1037 256.446 34.1817 250.614 36.1257 244.134C37.0977 251.748 38.0697 259.524 39.3657 267.138C35.1537 265.518 31.1037 263.736 27.0537 261.792ZM63.0177 151.47C62.2077 150.66 61.2357 150.174 60.2637 149.688C61.2357 149.04 62.2077 148.554 63.3417 148.878C65.1237 149.526 65.9337 152.118 66.4197 153.9C67.3917 157.464 68.3637 161.514 67.7157 165.24C67.2297 162.648 66.5817 160.056 65.9337 157.626C65.2857 155.358 64.6377 153.09 63.0177 151.47ZM71.6037 154.386C75.8157 154.062 80.0277 153.738 84.2397 153.414C80.0277 153.9 75.8157 154.224 71.6037 154.71C71.6037 154.548 71.6037 154.548 71.6037 154.386ZM90.7197 149.04C91.5297 148.392 92.3397 147.906 93.3117 147.42C93.7977 147.096 94.2837 146.934 94.9317 146.61C95.0937 146.448 95.4177 146.448 95.5797 146.286C95.5797 146.286 95.5797 146.286 95.7417 146.286C95.9037 146.448 96.0657 146.772 96.0657 146.772C96.2277 147.258 96.5517 147.744 96.7137 148.068C97.1997 149.202 97.5237 150.336 97.8477 151.632C98.8197 155.358 98.9817 159.246 98.4957 162.972C96.8757 157.95 94.4457 153.09 90.7197 149.04ZM126.198 146.61C126.198 146.448 126.036 146.286 126.036 146.124C126.198 146.124 126.36 145.962 126.522 145.962C127.332 145.638 128.466 144.99 129.114 144.828C129.924 144.666 130.41 145.476 130.734 146.286C131.382 147.42 132.03 148.554 132.354 149.85C133.65 153.414 134.136 157.302 133.812 161.028C132.516 155.844 129.924 150.822 126.198 146.61ZM137.052 148.23C144.018 147.42 150.984 146.61 157.95 145.638C157.95 145.962 157.95 146.124 157.95 146.448C157.95 146.61 158.112 146.934 158.112 147.096C151.308 147.582 144.504 147.906 137.7 148.392C137.538 148.392 137.376 148.392 137.214 148.554C137.052 148.554 137.052 148.392 137.052 148.23Z" fill="#0F0E98"/>
<path d="M88.2897 227.448C86.5077 227.934 84.7257 228.258 83.1057 228.582C81.6477 218.7 80.0277 208.98 78.2457 199.098C77.9217 196.992 74.8437 196.83 73.7097 198.45C68.5257 206.874 62.8557 215.136 56.8617 222.912C56.5377 223.074 56.3757 223.398 56.2137 223.722C54.7557 226.314 53.2977 228.906 51.8397 231.498C50.8677 233.28 52.1637 235.062 53.9457 235.224C62.3697 235.872 70.7937 235.548 79.0557 234.252C80.0277 241.704 80.9997 249.156 81.8097 256.77C82.1337 259.848 86.9937 259.848 86.6697 256.77C85.8597 248.994 84.8877 241.218 83.9157 233.442C85.8597 233.118 87.8037 232.632 89.7477 232.146C92.6637 231.498 91.3677 226.638 88.2897 227.448ZM57.9957 230.526C58.8057 229.23 59.4537 227.934 60.2637 226.476L60.4257 226.314C65.4477 219.834 69.9837 213.192 74.5197 206.226C75.8157 213.84 77.1117 221.616 78.2457 229.392C71.4417 230.526 64.7997 230.85 57.9957 230.526Z" fill="#0F0E98"/>
<path d="M116.316 207.684C113.886 207.846 111.618 208.818 109.674 210.114C108.864 209.628 107.73 209.628 106.92 210.6C102.06 215.784 97.848 222.75 98.658 230.202C99.468 236.844 104.004 243.162 110.97 244.134C117.936 244.944 124.578 240.408 127.332 234.09C130.086 227.772 129.762 219.024 126.036 213.03C123.93 209.628 120.366 207.36 116.316 207.684ZM123.444 230.526C121.986 235.224 117.774 239.274 112.752 239.274C107.892 239.274 104.652 235.062 103.68 230.526C102.87 225.99 104.652 221.616 107.244 217.89C107.892 218.052 108.54 217.89 109.188 217.08C112.266 213.678 117.936 210.276 121.5 214.974C124.578 219.186 124.902 225.666 123.444 230.526Z" fill="#0F0E98"/>
<path d="M157.302 212.706C156.006 213.03 154.71 213.192 153.414 213.354C152.928 209.952 152.604 206.712 152.118 203.31C151.632 199.422 151.632 195.21 149.688 191.646C148.878 190.35 146.934 190.026 145.8 191.16C138.996 198.612 133.326 207.198 129.438 216.432C128.79 218.052 129.6 220.158 131.544 220.158C137.376 220.158 143.37 219.672 149.202 218.862C150.174 226.476 151.146 234.252 151.956 241.866C152.28 244.944 157.302 244.944 156.816 241.866C155.844 233.928 154.872 225.99 153.9 218.214C155.52 217.89 156.978 217.728 158.436 217.404C161.676 216.918 160.38 212.058 157.302 212.706ZM147.582 205.74C147.906 208.494 148.23 211.248 148.554 214.002C144.18 214.488 139.806 214.974 135.594 215.136C138.672 208.98 142.398 203.148 146.772 197.802C147.096 200.394 147.258 203.31 147.582 205.74Z" fill="#0F0E98"/>
<path d="M93.1497 107.406C92.6637 109.026 93.6357 109.998 94.9317 110.322C94.7697 111.618 95.5797 113.076 97.1997 112.914C119.232 111.618 141.102 107.406 162.162 100.602C164.268 99.9537 164.268 97.5237 163.134 96.3897C164.916 86.8317 166.374 76.9497 164.592 67.2297C163.782 62.3697 161.838 57.8337 159.084 53.4597C156.654 49.5717 153.576 45.6837 152.442 40.9857C151.47 37.0977 151.632 32.8857 146.448 32.8857C143.856 32.8857 141.264 33.5337 138.672 34.0197C135.594 34.5057 132.516 34.9917 129.6 35.4777C117.45 37.4217 105.138 39.5277 92.9877 41.4717C92.1777 41.6337 91.6917 41.9577 91.5297 42.4437C89.9097 39.6897 85.6977 42.1197 87.3177 44.8737C98.0097 63.9897 100.116 86.8317 93.1497 107.406ZM94.2837 46.3317C104.814 44.5497 115.182 42.9297 125.712 41.1477C130.896 40.3377 136.242 39.3657 141.426 38.5557C142.56 38.3937 144.342 37.7457 145.314 37.9077C147.096 38.0697 146.934 38.3937 147.258 40.1757C147.582 42.1197 148.068 43.7397 148.878 45.5217C150.498 49.2477 152.766 52.4877 154.872 55.8897C157.302 59.7777 159.084 63.8277 159.732 68.3637C161.352 77.5977 159.732 87.3177 157.95 96.5517C138.51 102.708 118.422 106.434 98.0097 107.73C104.652 87.4797 103.032 65.1237 93.4737 46.1697C93.7977 46.4937 93.9597 46.4937 94.2837 46.3317Z" fill="#0F0E98"/>
<path d="M112.914 66.7442C114.372 67.0682 115.506 66.2582 115.992 64.9622C117.45 61.3982 119.718 58.3202 122.634 55.7282C124.74 53.7842 128.466 51.0302 131.544 52.1642C135.27 53.6222 133.326 59.2922 132.678 61.8842C131.382 66.5822 130.086 71.2802 128.79 75.9782C127.98 79.0562 132.678 80.3522 133.488 77.2742C134.622 72.9002 135.918 68.5262 137.052 64.1522C138.186 60.1022 139.482 55.8902 137.538 51.8402C135.756 48.1142 131.868 46.6562 127.98 47.3042C124.254 47.9522 121.014 50.2202 118.26 52.8122C115.02 55.8902 112.59 59.6162 110.97 63.6662C110.808 64.9622 111.78 66.4202 112.914 66.7442Z" fill="#0F0E98"/>
<path d="M137.538 89.9096C137.538 89.5856 137.376 89.2616 137.214 89.0996C137.214 88.9376 137.052 88.9376 137.052 88.7756C136.728 88.2896 136.242 87.8036 135.756 87.4796C135.432 87.3176 135.27 87.1556 134.946 87.1556C134.784 87.1556 134.784 87.1556 134.622 86.9936C133.974 86.8316 133.488 86.8316 132.678 86.9936C132.516 86.9936 132.516 86.9936 132.354 87.1556C132.03 87.3176 131.706 87.3176 131.544 87.4796C130.896 87.8036 130.572 88.2896 130.248 88.7756C130.086 88.9376 130.086 89.0996 129.924 89.4236C129.762 89.5856 129.762 89.9096 129.762 90.0716C129.762 90.3956 129.6 90.7196 129.6 91.0436C129.6 91.2056 129.6 91.3676 129.6 91.5296C129.6 91.8536 129.6 92.1776 129.762 92.5016C129.762 92.8256 129.924 93.1496 130.086 93.4736C130.248 93.9596 130.572 94.2836 130.896 94.7696C131.22 95.0936 131.382 95.2556 131.706 95.4176C131.868 95.5796 132.03 95.5796 132.03 95.7416C133.002 96.2276 134.136 96.5516 135.108 96.3896C135.432 96.3896 135.756 96.3896 136.08 96.2276C136.404 96.0656 136.728 95.9036 136.89 95.7416C137.376 95.2556 137.7 94.6076 137.538 93.9596C137.538 93.4736 137.376 93.1496 137.214 92.8256C137.376 92.6636 137.376 92.3396 137.538 92.1776C137.7 91.2056 137.7 90.5576 137.538 89.9096Z" fill="#0F0E98"/>
<path d="M230.688 85.8594C220.158 108.377 208.656 130.571 196.344 152.279C194.724 155.033 199.098 157.463 200.556 154.709C212.868 133.001 224.37 110.969 234.9 88.2894C236.358 85.5354 232.146 82.9434 230.688 85.8594Z" fill="#0F0E98"/>
<path d="M289.17 190.835C260.658 180.143 233.118 167.345 206.55 152.441C203.796 150.821 201.366 155.195 204.12 156.653C231.012 171.719 259.038 184.679 287.874 195.533C290.79 196.667 292.086 191.969 289.17 190.835Z" fill="#0F0E98"/>
<path d="M318.978 109.35C292.41 101.898 265.842 94.4459 239.274 86.9939C236.196 86.1839 234.9 90.8819 237.978 91.6919C263.574 98.9819 289.332 106.11 314.928 113.4C304.56 137.376 295.974 162 289.656 187.434C288.846 190.512 293.706 191.808 294.354 188.73C300.834 162.81 309.42 137.538 320.274 113.076C321.084 111.456 320.598 109.836 318.978 109.35Z" fill="#0F0E98"/>
<path d="M295.65 126.522C298.566 127.656 299.862 122.958 296.946 121.824C279.288 114.534 260.982 109.512 242.19 106.92C239.112 106.434 237.816 111.294 240.894 111.618C259.524 114.21 277.992 119.232 295.65 126.522Z" fill="#0F0E98"/>
<path d="M231.822 126.197C230.688 125.549 229.23 126.035 228.42 127.007C225.018 132.353 222.264 138.347 220.482 144.503C220.158 145.799 220.968 147.257 222.264 147.581C223.56 147.905 224.856 147.095 225.342 145.799C226.962 139.967 229.554 134.621 232.794 129.599C233.442 128.465 232.956 126.845 231.822 126.197Z" fill="#0F0E98"/>
<path d="M285.12 148.067C283.986 147.419 282.366 147.743 281.718 148.877C280.908 150.659 279.936 152.603 279.126 154.385C275.4 152.765 271.512 151.307 267.786 149.687C268.596 148.229 269.244 146.771 270.216 145.313C270.864 144.179 270.54 142.559 269.406 141.911C268.11 141.263 266.814 141.587 266.004 142.721C265.032 144.341 264.06 145.961 263.25 147.581C259.524 145.961 255.798 144.341 252.072 142.721C253.206 140.615 254.34 138.671 255.474 136.565C256.122 135.431 255.798 133.811 254.664 133.163C253.53 132.515 251.91 132.839 251.262 133.973C250.128 136.241 248.832 138.347 247.698 140.615C244.782 139.319 242.028 138.185 239.112 136.727C236.196 135.431 233.766 139.643 236.682 140.939C239.598 142.235 242.514 143.531 245.268 144.827C244.782 145.637 244.458 146.447 243.972 147.257C243.324 148.391 243.648 150.011 244.782 150.659C245.916 151.307 247.536 150.983 248.184 149.849C248.67 148.877 249.156 147.905 249.804 146.933C253.692 148.715 257.58 150.335 261.468 152.117C260.82 153.899 260.334 155.519 260.01 157.301C259.038 156.977 258.228 156.653 257.256 156.329C247.698 153.089 238.302 149.849 228.744 146.609C225.666 145.637 224.37 150.335 227.448 151.307C236.358 154.385 245.268 157.463 254.178 160.379C260.334 162.485 267.3 164.105 272.97 167.831C272.808 168.317 272.646 168.641 272.322 169.127C271.836 170.261 271.998 171.719 273.132 172.529C274.266 173.177 275.886 172.853 276.534 171.719C276.696 171.557 276.696 171.233 276.858 171.071C279.126 172.691 282.042 169.451 279.936 167.345C279.612 167.021 279.288 166.859 278.964 166.535C279.936 164.591 280.746 162.485 281.718 160.541C281.88 160.541 282.042 160.703 282.204 160.703C284.958 161.837 286.254 157.463 283.824 156.167C284.634 154.547 285.444 152.765 286.092 151.145C286.416 150.173 286.254 148.715 285.12 148.067ZM274.752 163.781C271.512 161.837 268.11 160.379 264.546 159.245C264.87 157.625 265.356 155.843 265.842 154.385C269.568 156.005 273.294 157.463 277.02 159.083C276.372 160.541 275.562 162.161 274.752 163.781Z" fill="#0F0E98"/>
<path d="M237.168 127.332C254.664 130.41 271.674 135.594 287.874 143.046C290.79 144.342 293.22 140.13 290.304 138.834C273.78 131.22 256.446 125.712 238.464 122.472C235.386 121.986 233.928 126.684 237.168 127.332Z" fill="#0F0E98"/>
</svg>
