<svg width="30" height="30" viewBox="0 0 30 30" fill="none" xmlns="http://www.w3.org/2000/svg">
<path d="M15 3.28125C8.53828 3.28125 3.28125 8.53828 3.28125 15C3.28125 21.4617 8.53828 26.7188 15 26.7188C21.4617 26.7188 26.7188 21.4617 26.7188 15C26.7188 8.53828 21.4617 3.28125 15 3.28125ZM15 8.08594C15.3013 8.08594 15.5958 8.17529 15.8464 8.34268C16.0969 8.51008 16.2922 8.74801 16.4075 9.02638C16.5228 9.30475 16.5529 9.61106 16.4942 9.90658C16.4354 10.2021 16.2903 10.4736 16.0772 10.6866C15.8642 10.8997 15.5927 11.0448 15.2972 11.1035C15.0017 11.1623 14.6954 11.1322 14.417 11.0168C14.1386 10.9015 13.9007 10.7063 13.7333 10.4558C13.5659 10.2052 13.4766 9.91068 13.4766 9.60938C13.4766 9.20533 13.6371 8.81784 13.9228 8.53214C14.2085 8.24644 14.596 8.08594 15 8.08594ZM17.8125 21.3281H12.6562C12.4076 21.3281 12.1692 21.2294 11.9933 21.0535C11.8175 20.8777 11.7188 20.6393 11.7188 20.3906C11.7188 20.142 11.8175 19.9035 11.9933 19.7277C12.1692 19.5519 12.4076 19.4531 12.6562 19.4531H14.2969V14.2969H13.3594C13.1107 14.2969 12.8723 14.1981 12.6965 14.0223C12.5206 13.8465 12.4219 13.608 12.4219 13.3594C12.4219 13.1107 12.5206 12.8723 12.6965 12.6965C12.8723 12.5206 13.1107 12.4219 13.3594 12.4219H15.2344C15.483 12.4219 15.7215 12.5206 15.8973 12.6965C16.0731 12.8723 16.1719 13.1107 16.1719 13.3594V19.4531H17.8125C18.0611 19.4531 18.2996 19.5519 18.4754 19.7277C18.6512 19.9035 18.75 20.142 18.75 20.3906C18.75 20.6393 18.6512 20.8777 18.4754 21.0535C18.2996 21.2294 18.0611 21.3281 17.8125 21.3281Z" fill="white" fill-opacity="0.7"/>
</svg>
