<svg width="16" height="16" viewBox="0 0 16 16" fill="none" xmlns="http://www.w3.org/2000/svg">
<path d="M13.3728 4.66121C13.0908 4.01077 12.6841 3.42185 12.1757 2.92768C11.6657 2.42905 11.0644 2.03329 10.4047 1.76201C9.71849 1.47733 8.99032 1.3335 8.23968 1.3335C7.48903 1.3335 6.76086 1.47733 6.07464 1.76051C5.41089 2.0347 4.81607 2.42725 4.30365 2.92618C3.79561 3.42063 3.38897 4.00948 3.10651 4.65971C2.81435 5.33395 2.66602 6.05013 2.66602 6.78729C2.66602 7.84509 2.91923 8.89839 3.41666 9.91424C3.81671 10.7308 4.37557 11.5264 5.07977 12.283C6.2829 13.5746 7.54447 14.3642 7.90256 14.5754C8.0042 14.6355 8.12013 14.667 8.23818 14.6668C8.35504 14.6668 8.47041 14.6369 8.5738 14.5754C8.93189 14.3642 10.1935 13.5746 11.3966 12.283C12.1008 11.5279 12.6596 10.7308 13.0597 9.91424C13.5601 8.89989 13.8133 7.84809 13.8133 6.78879C13.8133 6.05163 13.665 5.33544 13.3728 4.66121ZM8.23968 13.5176C7.2523 12.8899 3.74479 10.4042 3.74479 6.78879C3.74479 5.62162 4.21076 4.52487 5.0573 3.69781C5.90683 2.86925 7.03654 2.41227 8.23968 2.41227C9.44281 2.41227 10.5725 2.86925 11.4221 3.6993C12.2686 4.52487 12.7346 5.62162 12.7346 6.78879C12.7346 10.4042 9.22705 12.8899 8.23968 13.5176ZM8.23968 4.27016C6.78333 4.27016 5.60268 5.45081 5.60268 6.90716C5.60268 8.3635 6.78333 9.54416 8.23968 9.54416C9.69602 9.54416 10.8767 8.3635 10.8767 6.90716C10.8767 5.45081 9.69602 4.27016 8.23968 4.27016ZM9.42633 8.09381C9.27069 8.24989 9.08572 8.37367 8.88207 8.45801C8.67842 8.54235 8.4601 8.58559 8.23968 8.58525C7.79169 8.58525 7.37066 8.40995 7.05303 8.09381C6.89694 7.93817 6.77316 7.7532 6.68882 7.54955C6.60448 7.3459 6.56124 7.12758 6.56158 6.90716C6.56158 6.45917 6.73688 6.03814 7.05303 5.72051C7.37066 5.40287 7.79169 5.22906 8.23968 5.22906C8.68767 5.22906 9.10869 5.40287 9.42633 5.72051C9.74396 6.03814 9.91777 6.45917 9.91777 6.90716C9.91777 7.35515 9.74396 7.77617 9.42633 8.09381Z" fill="#646D7B"/>
</svg>
