<svg width="28" height="29" viewBox="0 0 28 29" fill="none" xmlns="http://www.w3.org/2000/svg">
<path d="M19.0001 17.509C18.6634 17.5089 18.3301 17.5804 18.0205 17.7193C17.7109 17.8582 17.4312 18.0615 17.1985 18.317L11.4173 14.9017C11.5293 14.4601 11.5293 13.9955 11.4173 13.5539L17.1985 10.1385C17.6195 10.5968 18.1852 10.8782 18.7896 10.93C19.394 10.9818 19.9956 10.8004 20.4818 10.4199C20.968 10.0393 21.3053 9.4857 21.4307 8.86272C21.556 8.23975 21.4607 7.59016 21.1627 7.03566C20.8646 6.48116 20.3842 6.05979 19.8115 5.85049C19.2388 5.64119 18.6131 5.65833 18.0515 5.89868C17.49 6.13904 17.0312 6.58612 16.761 7.15618C16.4909 7.72624 16.428 8.38015 16.5841 8.99542L10.8028 12.4108C10.4575 12.0327 10.0123 11.7718 9.5246 11.6616C9.03687 11.5513 8.52889 11.5968 8.06599 11.7922C7.6031 11.9877 7.20648 12.324 6.92714 12.758C6.6478 13.1921 6.49854 13.7039 6.49854 14.2278C6.49854 14.7516 6.6478 15.2635 6.92714 15.6975C7.20648 16.1316 7.6031 16.4679 8.06599 16.6633C8.52889 16.8587 9.03687 16.9042 9.5246 16.794C10.0123 16.6838 10.4575 16.4228 10.8028 16.0448L16.5841 19.4602C16.45 19.99 16.4774 20.5507 16.6622 21.0634C16.8471 21.5761 17.1802 22.0152 17.6148 22.319C18.0494 22.6229 18.5637 22.7762 19.0856 22.7575C19.6074 22.7388 20.1106 22.549 20.5244 22.2148C20.9383 21.8806 21.2421 21.4186 21.3933 20.8939C21.5444 20.3691 21.5353 19.8078 21.3671 19.2888C21.199 18.7697 20.8803 18.319 20.4558 17.9998C20.0313 17.6806 19.5222 17.509 19.0001 17.509Z" fill="#B4B4B4"/>
</svg>
