<svg width="17" height="18" viewBox="0 0 17 18" fill="none" xmlns="http://www.w3.org/2000/svg">
<g clip-path="url(#clip0_393_5152)">
<path d="M16.2823 12.0238C16.7116 11.8575 17 11.4345 17 10.971V8.82648C17 8.19088 16.4829 7.67375 15.8473 7.67375H15.7296C16.0785 7.22202 16.0463 6.56882 15.6322 6.15468L14.1158 4.63832C13.7881 4.31062 13.285 4.21538 12.8639 4.40138C12.6377 4.50132 12.3682 4.45088 12.1933 4.27598C12.0184 4.10105 11.968 3.83155 12.0678 3.60538C12.2539 3.18428 12.1587 2.68115 11.8309 2.35342L10.3146 0.83705C9.86517 0.387683 9.13383 0.387617 8.68437 0.83705L1.8477 7.67375H1.15273C0.5171 7.67375 0 8.19088 0 8.82648V10.971C0 11.4345 0.288433 11.8576 0.717733 12.0237C0.9483 12.113 1.10323 12.3392 1.10323 12.5866C1.10323 12.834 0.9483 13.0602 0.717733 13.1495C0.288433 13.3158 0 13.7388 0 14.2023V16.3467C0 16.9823 0.5171 17.4995 1.15273 17.4995H15.8473C16.4829 17.4995 17 16.9823 17 16.3467V14.2023C17 13.7388 16.7116 13.3158 16.2823 13.1495C16.0517 13.0602 15.8968 12.834 15.8968 12.5866C15.8968 12.3392 16.0517 12.113 16.2823 12.0238ZM9.39147 1.54422C9.45103 1.48465 9.54793 1.48465 9.60747 1.54418L11.1238 3.06055C11.1618 3.09852 11.1735 3.15508 11.1531 3.20138C10.8876 3.80242 11.0215 4.51845 11.4862 4.98308C11.9508 5.44775 12.6669 5.58158 13.2679 5.31615C13.3142 5.29575 13.3708 5.30748 13.4087 5.34545L14.9251 6.86178C14.9846 6.92135 14.9846 7.01828 14.9251 7.07778L14.3291 7.67375H11.7237L7.4928 3.44285L9.39147 1.54422ZM6.7857 4.14995L10.3095 7.67375H3.26187L6.7857 4.14995ZM1 16.3467V14.2023C1 14.1486 1.0317 14.1003 1.07887 14.082C1.69157 13.8447 2.1032 13.2438 2.1032 12.5866C2.1032 11.9294 1.69153 11.3285 1.0788 11.0912C1.03167 11.073 1 11.0246 1 10.971V8.82648C1 8.74228 1.06853 8.67375 1.15273 8.67375H12.5V16.4995H1.15273C1.06853 16.4995 1 16.431 1 16.3467ZM16 10.971C16 11.0246 15.9683 11.073 15.9212 11.0912C15.3085 11.3285 14.8968 11.9295 14.8968 12.5866C14.8968 13.2438 15.3084 13.8447 15.9211 14.082C15.9683 14.1003 16 14.1486 16 14.2023V16.3467C16 16.4309 15.9315 16.4995 15.8473 16.4995H13.5V8.67375H15.8473C15.9315 8.67375 16 8.74228 16 8.82648V10.971Z" fill="white"/>
<path d="M3.5 10H11V11H3.5V10Z" fill="white"/>
<path d="M3.5 12H11V13H3.5V12Z" fill="white"/>
<path d="M3.5 14H11V15H3.5V14Z" fill="white"/>
</g>
<defs>
<clipPath id="clip0_393_5152">
<rect width="17" height="17" fill="white" transform="translate(0 0.5)"/>
</clipPath>
</defs>
</svg>
