<svg width="21" height="16" viewBox="0 0 21 16" fill="none" xmlns="http://www.w3.org/2000/svg">
<path d="M19.7857 0H1.21429C0.819196 0 0.5 0.319196 0.5 0.714286V15C0.5 15.3951 0.819196 15.7143 1.21429 15.7143H19.7857C20.1808 15.7143 20.5 15.3951 20.5 15V0.714286C20.5 0.319196 20.1808 0 19.7857 0ZM18.8929 14.1071H2.10714V13.2165L5.19866 9.54911L8.54911 13.5223L13.7612 7.34375L18.8929 13.4286V14.1071ZM18.8929 11.2098L13.8973 5.28571C13.8259 5.20089 13.6964 5.20089 13.625 5.28571L8.54911 11.3036L5.33482 7.4933C5.26339 7.40848 5.13393 7.40848 5.0625 7.4933L2.10714 10.9978V1.60714H18.8929V11.2098ZM5.85714 6.60714C6.1151 6.60714 6.37052 6.55634 6.60884 6.45762C6.84716 6.35891 7.0637 6.21422 7.2461 6.03182C7.4285 5.84942 7.57319 5.63288 7.67191 5.39456C7.77062 5.15624 7.82143 4.90081 7.82143 4.64286C7.82143 4.3849 7.77062 4.12948 7.67191 3.89116C7.57319 3.65284 7.4285 3.4363 7.2461 3.2539C7.0637 3.0715 6.84716 2.92681 6.60884 2.82809C6.37052 2.72938 6.1151 2.67857 5.85714 2.67857C5.33618 2.67857 4.83656 2.88552 4.46818 3.2539C4.09981 3.62227 3.89286 4.1219 3.89286 4.64286C3.89286 5.16382 4.09981 5.66344 4.46818 6.03182C4.83656 6.40019 5.33618 6.60714 5.85714 6.60714ZM5.85714 4.01786C6.20312 4.01786 6.48214 4.29688 6.48214 4.64286C6.48214 4.98884 6.20312 5.26786 5.85714 5.26786C5.51116 5.26786 5.23214 4.98884 5.23214 4.64286C5.23214 4.29688 5.51116 4.01786 5.85714 4.01786Z" fill="#607EFC"/>
</svg>
